<svg width="80" height="80" viewBox="0 0 80 80" fill="none" xmlns="http://www.w3.org/2000/svg">
<path d="M40 33.3334V63.3334M40 33.3334L50 43.3334M40 33.3334L30 43.3334M58.3333 50C63.3966 50 66.6666 45.8967 66.6666 40.8334C66.6665 38.8288 66.0092 36.8795 64.7955 35.2841C63.5818 33.6887 61.8785 32.5351 59.9466 32C59.6494 28.2616 58.1 24.7326 55.5489 21.9837C52.9979 19.2348 49.5942 17.4266 45.8883 16.8515C42.1824 16.2763 38.3908 16.9679 35.1266 18.8143C31.8624 20.6608 29.3163 23.5542 27.9 27.0267C24.9181 26.2001 21.7299 26.5919 19.0369 28.116C16.3439 29.64 14.3666 32.1715 13.54 35.1534C12.7134 38.1353 13.1052 41.3234 14.6293 44.0165C16.1533 46.7095 18.6847 48.6868 21.6666 49.5134" stroke="#007AFF" stroke-width="5" stroke-linecap="round" stroke-linejoin="round"/>
</svg>
